<?xml version="1.0" encoding="iso-8859-1"?>
<!-- Generator: Adobe Illustrator 19.0.0, SVG Export Plug-In . SVG Version: 6.00 Build 0)  -->
<svg version="1.1" id="Layer_1" xmlns="http://www.w3.org/2000/svg" xmlns:xlink="http://www.w3.org/1999/xlink" x="0px" y="0px" viewBox="0 0 474 474" style="enable-background:new 0 0 474 474;" xml:space="preserve">
<path style="fill:#EDC92C;" d="M0,236.982C0,106.091,106.098,0,236.975,0c130.884,0,236.982,106.091,236.982,236.982
	c0,130.873-106.098,236.975-236.982,236.975C106.098,473.961,0,367.855,0,236.982z"/>
<path style="fill:#CAE8E4;" d="M148.137,378.789c-14.208,14.208-37.227,14.208-51.435,0l-1.426-1.426
	c-14.2-14.193-14.2-37.22,0-51.423L326.699,94.521c14.2-14.204,67.06,38.649,52.853,52.856L148.137,378.789z"/>
<path id="SVGCleanerId_0" style="fill:#CAE8E4;" d="M387.818,149.2c-3.697,3.689-20.004-1.325-40.378-21.699
	S321,89.765,324.69,86.08l0,0c3.704-3.701,15.843-2.462,40.591,22.29C390.029,133.114,391.514,145.499,387.818,149.2L387.818,149.2z
	"/>
<g>
	<path id="SVGCleanerId_0_1_" style="fill:#CAE8E4;" d="M387.818,149.2c-3.697,3.689-20.004-1.325-40.378-21.699
		S321,89.765,324.69,86.08l0,0c3.704-3.701,15.843-2.462,40.591,22.29C390.029,133.114,391.514,145.499,387.818,149.2L387.818,149.2
		z"/>
</g>
<path style="fill:#E0F1EF;" d="M148.137,378.789c-14.208,14.208-37.227,14.208-51.435,0l262.224-265.925
	c13.792,13.373,26.896,28.254,20.625,34.518L148.137,378.789z"/>
<path style="fill:#EF5353;" d="M145.054,373.797c-11.962,11.962-31.352,11.962-43.315,0l-1.205-1.19
	c-11.955-11.955-11.955-31.36,0-43.319l33.092-33.085l89.38-0.094L145.054,373.797z"/>
<path style="fill:#F06465;" d="M145.054,373.797c-11.962,11.962-31.352,11.962-43.315,0l76.422-77.601l44.842-0.086L145.054,373.797
	z"/>
<path style="fill:#F49396;" d="M97.515,357.734c0,7.323,10.496,19.768,26.26,19.768s25.044-11.57,25.044-18.9
	C148.815,351.257,97.515,350.377,97.515,357.734z"/>
</svg>
